<svg width="114" height="27" viewBox="0 0 114 27" fill="none" xmlns="http://www.w3.org/2000/svg">
<g clip-path="url(#clip0_39_1658)">
<path d="M30.5354 0C30.5985 1.03612 30.4899 2.0757 30.2142 3.07459C30.1722 3.21593 30.16 3.3648 30.1783 3.51135C30.1966 3.65789 30.2451 3.79878 30.3205 3.92469C31.3786 5.93726 31.1373 7.91185 30.035 9.81295C29.3834 10.9241 28.4062 11.7957 27.2429 12.3032C27.1271 12.345 27.0248 12.4188 26.9475 12.5165C26.8701 12.6143 26.8207 12.7321 26.8046 12.8569C26.5658 14.0083 26.2935 15.1512 26.032 16.2965C25.9985 16.4411 25.9555 16.5832 25.9209 16.7106C26.3122 16.8859 26.6945 17.0817 27.0662 17.2973C27.6287 17.6648 27.8042 18.1548 27.6514 18.7513C27.4985 19.3478 27.0542 19.5328 26.5312 19.5549C25.608 19.5928 24.6825 19.6051 23.7581 19.6038C17.5035 19.6038 11.2493 19.5981 4.99548 19.5867C4.87606 19.5867 4.76977 19.6026 4.56556 19.6185C5.1788 20.109 5.90462 20.4295 6.67338 20.5495C7.89628 20.7271 9.12874 20.8496 10.3612 20.9329C12.0725 21.0468 13.7922 21.0554 15.4964 21.2012C16.9104 21.3237 18.2491 21.7548 19.3956 22.6711C20.2123 23.3268 20.8209 24.2166 21.144 25.2275C21.2028 25.3896 21.2298 25.5621 21.2234 25.7349C21.217 25.9077 21.1772 26.0776 21.1065 26.2346C21.0358 26.3916 20.9355 26.5327 20.8113 26.6498C20.6872 26.7669 20.5417 26.8576 20.3832 26.9167C20.229 26.9785 20.0643 27.0081 19.8988 27.0037C19.7332 26.9993 19.5702 26.961 19.4194 26.8911C19.2685 26.8211 19.1328 26.7209 19.0202 26.5963C18.9076 26.4718 18.8205 26.3254 18.7638 26.1658C18.3291 24.9985 17.4944 24.2757 16.3455 24.0712C14.9853 23.8262 13.5988 23.7294 12.217 23.618C10.3313 23.4673 8.42891 23.4636 6.55635 23.2125C4.556 22.943 2.8375 22.0133 1.62415 20.2727C1.53527 20.1499 1.45352 20.0219 1.37933 19.8893C0.115829 17.5031 -0.352311 15.0054 0.267498 12.3167C0.644877 10.6827 1.08316 9.09269 2.07796 7.71464C4.98115 3.69318 10.3086 2.06524 15.1071 3.79485C16.1162 4.16233 17.0704 4.6817 18.0473 5.13615C18.2336 5.2219 18.4056 5.33214 18.5322 5.39951C18.8701 4.73315 19.1985 4.10843 19.5007 3.47147C19.5417 3.33249 19.5417 3.18416 19.5007 3.04519C19.3478 2.25143 19.1806 1.4589 19.023 0.665142C19 0.481907 18.9876 0.297433 18.986 0.112696C19.1818 0.183742 19.3192 0.226616 19.4517 0.282963C19.81 0.43363 20.1766 0.573272 20.5265 0.749663C21.6897 1.34376 22.8541 1.67449 24.2048 1.42338C25.0276 1.27026 25.9185 1.52015 26.7808 1.57159C26.9954 1.59476 27.2123 1.5671 27.4149 1.49075C28.3249 1.06692 29.2218 0.613692 30.1234 0.172716C30.2452 0.116369 30.3682 0.0710462 30.5354 0ZM26.7652 5.45463C26.2529 5.67144 26.0833 5.9544 26.3389 6.09772C26.658 6.26728 27.0153 6.34715 27.3743 6.32924C27.7564 6.31086 28.012 6.01198 28.0729 5.6053C28.0873 5.54106 28.0882 5.4744 28.0753 5.40981C28.0625 5.34523 28.0362 5.28422 27.9984 5.23092C27.9606 5.17762 27.9121 5.13327 27.8561 5.10086C27.8002 5.06845 27.7381 5.04874 27.674 5.04306C27.3492 4.98303 27.3373 5.22802 27.305 5.47178C27.2611 5.71954 27.2049 5.96484 27.1366 6.20674L26.9909 6.19572C26.9241 5.96176 26.8524 5.72534 26.7652 5.45463ZM22.7896 6.20674H22.632C22.5647 5.92391 22.5117 5.63771 22.4731 5.34929C22.4361 4.96099 22.214 4.97446 21.9751 5.09573C21.6778 5.24639 21.6742 5.52568 21.7757 5.80741C21.9381 6.25696 22.4851 6.50563 23.0105 6.32924C23.21 6.26187 23.3688 6.06833 23.5468 5.93236L23.081 5.33949L22.7896 6.20674Z" fill="white"/>
</g>
<path d="M43.528 19.16C42.696 19.16 41.9173 19.016 41.192 18.728C40.4667 18.4293 39.832 18.0187 39.288 17.496C38.7547 16.9733 38.3333 16.3653 38.024 15.672C37.7253 14.968 37.576 14.2107 37.576 13.4C37.576 12.5787 37.7253 11.8213 38.024 11.128C38.3333 10.424 38.76 9.81067 39.304 9.288C39.848 8.76533 40.4773 8.36 41.192 8.072C41.9173 7.77333 42.696 7.624 43.528 7.624C44.1467 7.624 44.744 7.70933 45.32 7.88C45.896 8.05067 46.4293 8.29067 46.92 8.6C47.4213 8.90933 47.848 9.28267 48.2 9.72L46.632 11.272C46.2267 10.7707 45.7573 10.392 45.224 10.136C44.7013 9.88 44.136 9.752 43.528 9.752C43.0267 9.752 42.5573 9.848 42.12 10.04C41.6827 10.2213 41.304 10.4773 40.984 10.808C40.664 11.128 40.4133 11.512 40.232 11.96C40.0507 12.3973 39.96 12.8773 39.96 13.4C39.96 13.912 40.0507 14.392 40.232 14.84C40.4133 15.2773 40.6693 15.6613 41 15.992C41.3307 16.312 41.7147 16.5627 42.152 16.744C42.6 16.9253 43.0853 17.016 43.608 17.016C44.1947 17.016 44.744 16.8933 45.256 16.648C45.768 16.4027 46.2213 16.0507 46.616 15.592L48.136 17.096C47.784 17.5227 47.3627 17.8907 46.872 18.2C46.3813 18.5093 45.848 18.7493 45.272 18.92C44.7067 19.08 44.1253 19.16 43.528 19.16ZM49.5084 19V7.8L51.7004 7.32V11.352C52.3297 10.7867 53.1084 10.504 54.0364 10.504C54.687 10.504 55.2577 10.648 55.7484 10.936C56.2497 11.2133 56.639 11.6027 56.9164 12.104C57.1937 12.5947 57.3324 13.1707 57.3324 13.832V19H55.1404V14.152C55.1404 13.608 54.9857 13.1813 54.6764 12.872C54.367 12.552 53.9457 12.392 53.4124 12.392C53.039 12.392 52.7084 12.4667 52.4204 12.616C52.1324 12.7547 51.8924 12.9573 51.7004 13.224V19H49.5084ZM61.8087 19.144C61.2114 19.144 60.6834 19.0373 60.2247 18.824C59.7661 18.6 59.4087 18.296 59.1527 17.912C58.8967 17.528 58.7687 17.0853 58.7687 16.584C58.7687 15.784 59.0674 15.1653 59.6647 14.728C60.2727 14.28 61.1047 14.056 62.1607 14.056C62.8861 14.056 63.5687 14.168 64.2087 14.392V13.784C64.2087 13.304 64.0594 12.9413 63.7607 12.696C63.4621 12.4507 63.0247 12.328 62.4488 12.328C62.0967 12.328 61.7181 12.3867 61.3127 12.504C60.9074 12.6107 60.4381 12.7813 59.9047 13.016L59.1047 11.4C59.7661 11.1013 60.3954 10.8773 60.9927 10.728C61.6007 10.5787 62.2087 10.504 62.8168 10.504C63.9367 10.504 64.8061 10.776 65.4247 11.32C66.0541 11.8533 66.3687 12.6107 66.3687 13.592V19H64.2087V18.408C63.8674 18.664 63.4994 18.8507 63.1048 18.968C62.7101 19.0853 62.2781 19.144 61.8087 19.144ZM60.8487 16.536C60.8487 16.856 60.9874 17.112 61.2647 17.304C61.5421 17.4853 61.9101 17.576 62.3688 17.576C62.7314 17.576 63.0674 17.5333 63.3767 17.448C63.6861 17.352 63.9634 17.2133 64.2087 17.032V15.816C63.9421 15.7093 63.6648 15.6293 63.3767 15.576C63.0887 15.5227 62.7794 15.496 62.4488 15.496C61.9474 15.496 61.5527 15.592 61.2647 15.784C60.9874 15.9653 60.8487 16.216 60.8487 16.536ZM71.9054 19.128C70.9774 19.128 70.2734 18.92 69.7934 18.504C69.324 18.0773 69.0894 17.4587 69.0894 16.648V12.488H67.3774V10.664H69.0894V8.536L71.2814 8.04V10.664H73.6654V12.488H71.2814V16.2C71.2814 16.584 71.3667 16.8613 71.5374 17.032C71.708 17.192 72.0067 17.272 72.4334 17.272C72.6467 17.272 72.8387 17.2613 73.0094 17.24C73.1907 17.208 73.388 17.1547 73.6014 17.08V18.888C73.3774 18.9627 73.0947 19.0213 72.7534 19.064C72.4227 19.1067 72.14 19.128 71.9054 19.128ZM79.0386 19.16C78.132 19.16 77.2466 18.9947 76.3826 18.664C75.5186 18.3227 74.7506 17.8427 74.0786 17.224L75.4066 15.56C76.0573 16.136 76.6813 16.552 77.2786 16.808C77.8866 17.064 78.5266 17.192 79.1986 17.192C79.668 17.192 80.0733 17.1387 80.4146 17.032C80.756 16.9147 81.0173 16.7493 81.1986 16.536C81.3906 16.3227 81.4866 16.072 81.4866 15.784C81.4866 15.4 81.348 15.1067 81.0706 14.904C80.7933 14.6907 80.3186 14.5253 79.6466 14.408L77.4226 14.024C76.4733 13.864 75.748 13.528 75.2466 13.016C74.756 12.504 74.5106 11.8427 74.5106 11.032C74.5106 10.3387 74.6866 9.736 75.0386 9.224C75.4013 8.712 75.908 8.32267 76.5586 8.056C77.22 7.77867 78.004 7.64 78.9106 7.64C79.732 7.64 80.548 7.77867 81.3586 8.056C82.18 8.33333 82.9053 8.71733 83.5346 9.208L82.2866 10.936C81.1133 10.04 79.9346 9.592 78.7506 9.592C78.3346 9.592 77.972 9.64533 77.6626 9.752C77.3533 9.85867 77.1133 10.008 76.9426 10.2C76.7826 10.3813 76.7026 10.6 76.7026 10.856C76.7026 11.1973 76.8253 11.464 77.0706 11.656C77.316 11.8373 77.7266 11.976 78.3026 12.072L80.4146 12.424C81.5346 12.6053 82.372 12.9627 82.9266 13.496C83.4813 14.0187 83.7586 14.712 83.7586 15.576C83.7586 16.3013 83.5666 16.936 83.1826 17.48C82.7986 18.0133 82.2493 18.4293 81.5346 18.728C80.8306 19.016 79.9986 19.16 79.0386 19.16ZM85.1484 19V7.8L87.3404 7.32V11.352C87.9697 10.7867 88.7484 10.504 89.6764 10.504C90.327 10.504 90.8977 10.648 91.3884 10.936C91.8897 11.2133 92.279 11.6027 92.5564 12.104C92.8337 12.5947 92.9724 13.1707 92.9724 13.832V19H90.7804V14.152C90.7804 13.608 90.6257 13.1813 90.3164 12.872C90.007 12.552 89.5857 12.392 89.0524 12.392C88.679 12.392 88.3484 12.4667 88.0604 12.616C87.7724 12.7547 87.5324 12.9573 87.3404 13.224V19H85.1484ZM94.7927 19V10.664H96.9847V19H94.7927ZM95.8807 9.672C95.5394 9.672 95.2461 9.54933 95.0007 9.304C94.7554 9.05867 94.6327 8.76533 94.6327 8.424C94.6327 8.072 94.7554 7.77867 95.0007 7.544C95.2461 7.29867 95.5394 7.176 95.8807 7.176C96.2327 7.176 96.5261 7.29867 96.7607 7.544C97.0061 7.77867 97.1287 8.072 97.1287 8.424C97.1287 8.76533 97.0061 9.05867 96.7607 9.304C96.5261 9.54933 96.2327 9.672 95.8807 9.672ZM98.859 19V10.664H101.051V11.592C101.318 11.2293 101.638 10.952 102.011 10.76C102.384 10.568 102.806 10.472 103.275 10.472C103.68 10.4827 103.984 10.5467 104.187 10.664V12.584C104.027 12.5093 103.851 12.456 103.659 12.424C103.467 12.3813 103.27 12.36 103.067 12.36C102.64 12.36 102.251 12.4667 101.899 12.68C101.547 12.8933 101.264 13.1973 101.051 13.592V19H98.859ZM109.302 19.16C108.47 19.16 107.713 18.968 107.03 18.584C106.358 18.2 105.825 17.6827 105.43 17.032C105.035 16.3813 104.838 15.6507 104.838 14.84C104.838 14.0293 105.025 13.2987 105.398 12.648C105.782 11.9973 106.299 11.48 106.95 11.096C107.601 10.712 108.326 10.52 109.126 10.52C109.926 10.52 110.635 10.7173 111.254 11.112C111.873 11.5067 112.358 12.04 112.71 12.712C113.073 13.384 113.254 14.1467 113.254 15V15.576H107.078C107.174 15.9067 107.329 16.2053 107.542 16.472C107.766 16.7387 108.038 16.9467 108.358 17.096C108.689 17.2453 109.041 17.32 109.414 17.32C109.787 17.32 110.129 17.2613 110.438 17.144C110.758 17.0267 111.03 16.8613 111.254 16.648L112.694 17.96C112.182 18.376 111.654 18.68 111.11 18.872C110.577 19.064 109.974 19.16 109.302 19.16ZM107.046 14.008H111.094C111.019 13.6773 110.881 13.3893 110.678 13.144C110.486 12.888 110.251 12.6907 109.974 12.552C109.707 12.4027 109.409 12.328 109.078 12.328C108.737 12.328 108.427 12.3973 108.15 12.536C107.873 12.6747 107.638 12.872 107.446 13.128C107.265 13.3733 107.131 13.6667 107.046 14.008Z" fill="white"/>
<defs>
<clipPath id="clip0_39_1658">
<rect width="31" height="27" fill="white"/>
</clipPath>
</defs>
</svg>
