<svg width="16" height="16" viewBox="0 0 16 16" fill="none" xmlns="http://www.w3.org/2000/svg">
<path fill-rule="evenodd" clip-rule="evenodd" d="M8 2.66671C6.89543 2.66671 6 3.56214 6 4.66671C6 5.77128 6.89543 6.66671 8 6.66671C9.10457 6.66671 10 5.77128 10 4.66671C10 3.56214 9.10457 2.66671 8 2.66671ZM4.66667 4.66671C4.66667 2.82576 6.15905 1.33337 8 1.33337C9.84095 1.33337 11.3333 2.82576 11.3333 4.66671C11.3333 6.50766 9.84095 8.00004 8 8.00004C6.15905 8.00004 4.66667 6.50766 4.66667 4.66671Z" fill="#8E79DB"/>
<path fill-rule="evenodd" clip-rule="evenodd" d="M5.33333 10.6667C4.22876 10.6667 3.33333 11.5621 3.33333 12.6667V14.6667H2V12.6667C2 10.8258 3.49238 9.33337 5.33333 9.33337H10.6667C12.5076 9.33337 14 10.8258 14 12.6667V14.6667H12.6667V12.6667C12.6667 11.5621 11.7712 10.6667 10.6667 10.6667H5.33333Z" fill="#8E79DB"/>
</svg>
